<?xml version="1.0" encoding="UTF-8"?>
<svg id="Capa_1" xmlns="http://www.w3.org/2000/svg" version="1.1" xmlns:xlink="http://www.w3.org/1999/xlink" viewBox="0 0 792 612">
  <!-- Generator: Adobe Illustrator 29.0.1, SVG Export Plug-In . SVG Version: 2.1.0 Build 192)  -->
  <defs>
    <style>
      .st0 {
        fill: #787a7b;
      }

      .st1 {
        fill: none;
        stroke: #959698;
        stroke-linecap: round;
        stroke-miterlimit: 10;
        stroke-width: 6px;
      }

      .st2 {
        fill: url(#Degradado_sin_nombre);
      }

      .st3 {
        fill: #959698;
      }
    </style>
    <linearGradient id="Degradado_sin_nombre" data-name="Degradado sin nombre" x1="474.7" y1="165" x2="435.7" y2="192.3" gradientTransform="translate(0 614) scale(1 -1)" gradientUnits="userSpaceOnUse">
      <stop offset=".5" stop-color="#787a7b"/>
      <stop offset=".5" stop-color="#959698"/>
    </linearGradient>
  </defs>
  <g id="logo">
    <path class="st0" d="M259.5,152.8v6.6c1.1-.2,26.8-5.1,41.2,12.2,2.7,3.3,4.5,6.7,5.7,9.9,1.4,3.7,2.1,7.7,2.1,11.7l.2,90.3c2.9,0,23.9-.5,37.6-17.7,9.1-11.4,10-23.8,10.1-28.3v-43.9c0-2.3.6-15.7,11.9-25.8,10.7-9.6,23.3-9.2,25.7-9,6.6,0,4.4,0,11,.1v-6.1h-145.6Z"/>
  </g>
  <circle class="st2" cx="455.2" cy="435.3" r="23.8"/>
  <path class="st3" d="M356.4,287.5c-37.1,8.8-65,29.8-108.2,23.8-20.9-2.9-37-11-46.4-16.5,27.2,24.7,50.7,31.2,66.6,32.9,14.8,1.5,27.9-.6,40.7-4.5h0c0,25.1,0,59.1,0,84.9s-.3,6.8-1,10.1c-1.3,6.1-4.1,14.4-10.6,22.2-12.9,15.7-30.7,18.2-34.7,18.7,10.1.1,44.4-.3,68.9-19.1,3.7-2.8,10.2-8,15.7-16.9,8-12.9,9-25.7,9-32.3v-103.4h0Z"/>
  <path class="st1" d="M322.5,70.5c15.8.3,36.6,2.3,60.1,8.7,24.1,6.6,43.4,15.7,57.4,23.6"/>
  <path class="st1" d="M453.3,110.9c16.5,10.8,40,28.9,61.8,57,24.2,31.3,36,61.8,41.9,81.6"/>
  <path class="st1" d="M561.3,266.1c4.7,21,9.5,55,2.8,95.9-5.3,32.1-15.8,57.4-24.7,74.5"/>
  <path class="st1" d="M530.7,452.1c-4,6.5-8.6,13.4-14,20.5-6.7,8.8-13.3,16.4-19.6,22.9"/>
</svg>